The Artist 2011 DVDSCR XViD AC3 - HOPE

Plot:

Hollywood, 1927: As silent movie star George Valentin wonders if the arrival 
of talking pictures will cause him to fade into oblivion, he sparks with Peppy Miller, a young dancer set for a big break.

IMDB: 
http://www.imdb.com/title/tt1655442/

Information:
Format                           : AVI
Format/Info                      : Audio Video Interleave
File size                        : 1.37 GiB
Duration                         : 1h 36mn
Overall bit rate                 : 2 041 Kbps
Writing library                  : VirtualDub build 31536/release

Video
ID                               : 0
Format                           : MPEG-4 Visual
Format profile                   : Advanced Simple@L5
Format settings, BVOP            : 2
Format settings, QPel            : No
Format settings, GMC             : No warppoints
Format settings, Matrix          : Default (H.263)
Muxing mode                      : Packed bitstream
Codec ID                         : XVID
Codec ID/Hint                    : XviD
Duration                         : 1h 36mn
Bit rate                         : 1 839 Kbps
Width                            : 720 pixels
Height                           : 528 pixels
Display aspect ratio             : 4:3
Frame rate                       : 25.000 fps
Color space                      : YUV
Chroma subsampling               : 4:2:0
Bit depth                        : 8 bits
Scan type                        : Progressive
Compression mode                 : Lossy
Bits/(Pixel*Frame)               : 0.194
Stream size                      : 1.23 GiB (90%)
Writing library                  : XviD 64

Audio
ID                               : 1
Format                           : AC-3
Format/Info                      : Audio Coding 3
Mode extension                   : CM (complete main)
Codec ID                         : 2000
Duration                         : 1h 36mn
Bit rate mode                    : Constant
Bit rate                         : 192 Kbps
Channel(s)                       : 2 channels
Channel positions                : Front: L R
Sampling rate                    : 48.0 KHz
Bit depth                        : 16 bits
Compression mode                 : Lossy
Stream size                      : 132 MiB (9%)
Alignment                        : Split accross interleaves
Interleave, duration             : 40 ms (1.00 video frame)
Interleave, preload duration     : 500 ms


Notes:

Ok another DVDSCR this time for a silent movie lol also in black and white first thing that was done was set proper AR, and then appended some filters after that 
i ripped the audio from the DVDR and appended to the AVI without any changes... DVDR did not include 5.1CH audio... there is a FRENCH watermark that pops up sometimes... but the subs/text are ENGLISH

Video Source &gt; MULTI DVD-R 2012 NYKOLA06... Thanks
Audio Source &gt; MULTI DVD-R 2012 NYKOLA06... Thanks

Respects to 26K, DTRG, JCRG, GooN, ViSiON, SANTi, INSPiRAL, REFiLL...
And many others in the P2P and Scene world


Poster:

 
http://i.imgur.com/N3koO.jpg


Screenshots:

 
http://i.imgur.com/2pGRw.jpg


ENJOY!